@startuml classes

!theme mimeograph

top to bottom direction

hide members

hide circle

skinparam roundcorner 10
skinparam classBackgroundColor #ece9e8

skinparam noteFontSize 10
skinparam noteBorderThickness 1
skinparam noteMargin 2
skinparam notePadding 2

skinparam nodesep 10
skinparam ranksep 30

set namespaceSeparator none

'--------------------------------------
' Classes
'--------------------------------------

class "Action" as game.actions.Action {
}

class "Engine" as game.engine.Engine {
}

class "Entity" as game.entity.Entity {
}

class "EscapeAction" as game.actions.EscapeAction {
}

class "EventHandler" as game.input_handlers.EventHandler {
}

class "GameMap" as game.map.game_map.GameMap #cce9c7 {
}

class "MovementAction" as game.actions.MovementAction {
}

class "RectangularRoom" as game.map.map_generator.RectangularRoom #ccc9e8 {
}

class "WaitAction" as game.actions.WaitAction {
}

'--------------------------------------
' Relations
'--------------------------------------

game.actions.EscapeAction --|> game.actions.Action
game.actions.MovementAction --|> game.actions.Action
game.actions.WaitAction --|> game.actions.Action
game.entity.Entity --o "*" game.engine.Engine : entities
game.entity.Entity --o game.engine.Engine : player
game.input_handlers.EventHandler --o game.engine.Engine : event_handler
game.map.game_map.GameMap --o game.engine.Engine : game_map

'--------------------------------------
' Order Rules
'--------------------------------------

game.actions.Action -[hidden]down- game.actions.MovementAction
game.actions.Action -[hidden]down- game.actions.WaitAction
game.actions.Action -[hidden]down- game.actions.EscapeAction

game.engine.Engine -[hidden]down-  game.input_handlers.EventHandler
game.engine.Engine -[hidden]down-  game.entity.Entity
game.engine.Engine -[hidden]down-  game.map.game_map.GameMap

game.entity.Entity -[hidden]down- game.map.map_generator.RectangularRoom

legend top right
<size:11><back:#ece9e8>   </back> Unchanged - <back:#ccc9e8>   </back> New - <back:#cce9c7>   </back> Modified - <back:#ecdac7>   </back> Exercise</size>
endlegend

@enduml
