@startuml classes

!theme mimeograph

top to bottom direction

hide members

hide circle

skinparam roundcorner 10
skinparam classBackgroundColor #ece9e8

skinparam noteFontSize 10
skinparam noteBorderThickness 1
skinparam noteMargin 2
skinparam notePadding 2

skinparam nodesep 10
skinparam ranksep 30

set namespaceSeparator none

'--------------------------------------
' Classes
'--------------------------------------

class "Action" as game.actions.Action #ccc9e8 {
}

class "EscapeAction" as game.actions.EscapeAction #ccc9e8 {
}

class "EventHandler" as game.input_handlers.EventHandler #ccc9e8 {
}

class "MovementAction" as game.actions.MovementAction #ccc9e8 {
}

class "WaitAction" as game.actions.WaitAction #ccc9e8 {
}

'--------------------------------------
' Relations
'--------------------------------------

game.actions.EscapeAction --|> game.actions.Action
game.actions.MovementAction --|> game.actions.Action
game.actions.WaitAction --|> game.actions.Action

'--------------------------------------
' Order Rules
'--------------------------------------

game.actions.Action -[hidden]down- game.actions.MovementAction
game.actions.Action -[hidden]down- game.actions.WaitAction
game.actions.Action -[hidden]down- game.actions.EscapeAction

legend top right
<size:11><back:#ece9e8>   </back> Unchanged - <back:#ccc9e8>   </back> New - <back:#cce9c7>   </back> Modified - <back:#ecdac7>   </back> Exercise</size>
endlegend

@enduml
